<svg height="512pt" viewBox="0 0 512 512" width="512pt" xmlns="http://www.w3.org/2000/svg" xmlns:xlink="http://www.w3.org/1999/xlink"><linearGradient id="a" gradientUnits="userSpaceOnUse" x1="256.00001" x2="256.00001" y1="512.00002" y2="0"><stop offset="0" stop-color="#ffd600"/><stop offset=".5271" stop-color="#ff0095"/><stop offset=".5802" stop-color="#f2069c"/><stop offset=".6791" stop-color="#cf14b0"/><stop offset=".813" stop-color="#962ccf"/><stop offset=".9753" stop-color="#494dfa"/><stop offset=".9951" stop-color="#3f51ff"/></linearGradient><path d="m512 256c0 47.585938-12.988281 92.148438-35.609375 130.332031-14.085937 23.757813-31.910156 45.054688-52.664063 63.066407-42.964843 37.292968-98.472656 60.511718-159.355468 62.464843-2.78125.09375-5.570313.136719-8.371094.136719s-5.589844-.042969-8.371094-.136719c-60.582031-1.941406-115.824218-24.929687-158.699218-61.886719-21.566407-18.589843-39.996094-40.722656-54.386719-65.476562-21.960938-37.761719-34.542969-81.667969-34.542969-128.5 0-45.265625 11.746094-87.792969 32.359375-124.6875 32.132813-57.5 85.796875-101.335938 150.078125-120.582031 23.292969-6.980469 47.992188-10.730469 73.5625-10.730469s50.269531 3.75 73.5625 10.730469c63.851562 19.121093 117.234375 62.507812 149.429688 119.441406 21.011718 37.15625 33.007812 80.09375 33.007812 125.828125zm0 0" fill="url(#a)"/><g fill="#f1f1f1"><path d="m485.097656 141.632812c-2.925781-68.140624-59.277344-122.671874-128.113281-122.671874h-201.957031c-68.859375 0-125.210938 54.542968-128.125 122.691406-.085938 1.851562-.125 3.699218-.125 5.558594v201.949218c0 8.972656.929687 17.742188 2.695312 26.195313 20.875 39.558593 51.824219 72.984375 89.421875 96.871093 11.460938 3.375 23.59375 5.183594 36.132813 5.183594h201.957031c12.539063 0 24.667969-1.808594 36.132813-5.183594 37.585937-23.886718 68.523437-57.300781 89.410156-96.839843 1.765625-8.464844 2.695312-17.242188 2.695312-26.226563v-201.949218c0-1.871094-.039062-3.730469-.125-5.578126zm-41.730468 207.527344c0 47.636719-38.757813 86.390625-86.382813 86.390625h-201.957031c-47.636719 0-86.394532-38.753906-86.394532-86.390625v-201.949218c0-47.636719 38.757813-86.390626 86.394532-86.390626h201.957031c47.625 0 86.382813 38.753907 86.382813 86.390626zm0 0"/><path d="m256.003906 127.871094c-66.339844 0-120.320312 53.980468-120.320312 120.320312s53.980468 120.308594 120.320312 120.308594c66.34375 0 120.3125-53.96875 120.3125-120.308594s-53.96875-120.320312-120.3125-120.320312zm0 198.769531c-43.269531 0-78.460937-35.191406-78.460937-78.449219 0-43.269531 35.191406-78.460937 78.460937-78.460937 43.261719 0 78.453125 35.191406 78.453125 78.460937 0 43.257813-35.191406 78.449219-78.453125 78.449219zm0 0"/><path d="m406.363281 124.738281c0 15.28125-12.390625 27.671875-27.671875 27.671875-15.285156 0-27.675781-12.390625-27.675781-27.671875 0-15.285156 12.390625-27.671875 27.675781-27.671875 15.28125 0 27.671875 12.386719 27.671875 27.671875zm0 0"/></g></svg>